<svg xmlns="http://www.w3.org/2000/svg" width="101.2003mm" height="23.4532mm" viewBox="0 0 286.8671 66.4814"><defs><style>.cls-1{fill:#00a4b9;}.cls-2{fill:#213c47;}</style></defs><g id="Laag_2" data-name="Laag 2"><g id="Laag_1-2" data-name="Laag 1"><path class="cls-1" d="M38.5849,46.2605c-3.4379-.0859-6.8808-.0115-10.3221-.0363-.003,2.2839-.0067,11.9153-.0052,19.8843a33.3249,33.3249,0,0,0,10.3211-.0593C38.5774,58.1012,38.5768,48.5308,38.5849,46.2605Z"/><path class="cls-1" d="M66.4815,33.2407a33.2408,33.2408,0,1,0-42.4429,31.94c0-12.039-.0012-28.1939.0012-34.5166-.0215-.5471-.19-1.0777-.248-1.6214a6.9033,6.9033,0,0,0-4.4974-4.8214,6.6971,6.6971,0,0,0-3.1057-.3091,6.8751,6.8751,0,0,0-5.7866,5.6015c-.1554,1.76-.0562,3.5322-.0728,5.2974.9289.0133,1.86-.0165,2.7868.038C11.721,36.7765,10.4368,38.783,9.08,40.7367c-.9983,1.5091-2.0611,2.9785-3.01,4.5222a14.2114,14.2114,0,0,1-.0744-1.8578c.0066-4.41-.0067-8.82.0066-13.2311a11.8941,11.8941,0,0,1,.471-2.6148A11.1333,11.1333,0,0,1,15.1639,19.8a12.8932,12.8932,0,0,1,2.8677-.1339,11.1227,11.1227,0,0,1,9.742,7.8577,10.61,10.61,0,0,1,.4694,2.4809c.0562,3.9966-.0363,7.9949.048,11.9915,3.4279-.0282,6.856.0182,10.284-.0232.0116-3.82-.0033-7.6411.0066-11.4609A8.7034,8.7034,0,0,1,38.99,27.6a11.18,11.18,0,0,1,7.9618-7.6627,12.1745,12.1745,0,0,1,6.03.1653,11.3477,11.3477,0,0,1,5.704,4.1619,11.0031,11.0031,0,0,1,2.0727,6.742q-.0025,5.95,0,11.9006c-.0017.7388.0148,1.4809-.0479,2.2181-1.719-2.4016-3.3256-4.8842-5.0049-7.3139-.6463-1-1.3735-1.95-1.98-2.9768.9305-.033,1.8611-.005,2.7917-.038-.0248-1.6313.0446-3.2644-.04-4.8941a7.555,7.555,0,0,0-1.4066-3.3685,6.68,6.68,0,0,0-7.5684-2.319,6.8933,6.8933,0,0,0-4.314,4.1718,9.38,9.38,0,0,0-.45,2.281c.0012,6.308,0,22.4,0,34.4293A33.2494,33.2494,0,0,0,66.4815,33.2407Z"/><path class="cls-2" d="M82.6939,13.1226h1.5606v3.7207h4.2949V13.1226h1.56v8.95h-1.56V18.3008H84.2545v3.7715H82.6939Z"/><path class="cls-2" d="M97.0133,13.1226h6.623V14.542H98.5738v2.3013h4.4873v1.4189H98.5738v2.3911H103.7v1.419H97.0133Z"/><path class="cls-2" d="M110.1822,13.1226h1.4551l4.7842,6.188v-6.188h1.56v8.95h-1.3134l-4.9248-6.3672v6.3672h-1.5606Z"/><path class="cls-2" d="M129.13,22.2256a4.9743,4.9743,0,0,1-1.9053-.3516,4.264,4.264,0,0,1-2.4033-2.4292,4.8912,4.8912,0,0,1-.333-1.8217v-.0254A4.6954,4.6954,0,0,1,124.83,15.82a4.5058,4.5058,0,0,1,.959-1.4765,4.5873,4.5873,0,0,1,3.3281-1.3746,6.3092,6.3092,0,0,1,1.0674.083,4.9409,4.9409,0,0,1,.8886.2369,4.4976,4.4976,0,0,1,.7735.3769,5.728,5.728,0,0,1,.71.5176l-.998,1.19a5.5239,5.5239,0,0,0-.5234-.3965,3.31,3.31,0,0,0-.5625-.3,3.4821,3.4821,0,0,0-.6465-.1919,3.9494,3.9494,0,0,0-.7735-.07,2.5917,2.5917,0,0,0-1.1435.2563,2.9655,2.9655,0,0,0-.9209.6851,3.191,3.191,0,0,0-.6133,1.0058,3.33,3.33,0,0,0-.2246,1.2168v.0259a3.6821,3.6821,0,0,0,.2168,1.2808,2.8645,2.8645,0,0,0,1.5752,1.6782,3.0594,3.0594,0,0,0,1.2441.2436,3.7164,3.7164,0,0,0,1.1924-.1865,3.3646,3.3646,0,0,0,.9629-.4946V18.4414h-2.2891V17.0732h3.8106V20.832a6.67,6.67,0,0,1-.7354.5371,5.5873,5.5873,0,0,1-.8691.4473,5.4971,5.4971,0,0,1-1.0039.3008A5.6782,5.6782,0,0,1,129.13,22.2256Z"/><path class="cls-2" d="M139.5113,13.1226h6.6231V14.542h-5.0625v2.3013h4.4873v1.4189h-4.4873v2.3911h5.1259v1.419h-6.6865Z"/><path class="cls-2" d="M152.6793,13.1226h1.56v7.5307h4.7046v1.419h-6.2651Z"/><path class="cls-2" d="M168.3419,22.2a5.6381,5.6381,0,0,1-1.9815-.3516,5.412,5.412,0,0,1-1.7519-1.0805l.9463-1.125a5.47,5.47,0,0,0,1.3164.8628,3.622,3.622,0,0,0,1.5088.3007,1.9486,1.9486,0,0,0,1.1572-.3071.959.959,0,0,0,.4287-.8179v-.0258a1.0338,1.0338,0,0,0-.084-.4283.93.93,0,0,0-.3076-.3515,2.4127,2.4127,0,0,0-.6152-.3067,8.7458,8.7458,0,0,0-1.0186-.2812,9.9684,9.9684,0,0,1-1.2754-.3775,3.458,3.458,0,0,1-.9355-.5112,1.961,1.961,0,0,1-.5772-.7353,2.5033,2.5033,0,0,1-.1982-1.0484V15.59a2.4047,2.4047,0,0,1,.8555-1.873,2.9278,2.9278,0,0,1,.9609-.5308,3.7685,3.7685,0,0,1,1.2256-.1919,5.1425,5.1425,0,0,1,1.7715.2876,5.2727,5.2727,0,0,1,1.4765.8379l-.8437,1.189a5.4913,5.4913,0,0,0-1.2149-.6841,3.2921,3.2921,0,0,0-1.2148-.2368,1.6748,1.6748,0,0,0-1.0733.3071.9329.9329,0,0,0-.3837.7544v.0254a1.0809,1.0809,0,0,0,.09.4541.881.881,0,0,0,.3262.3579,2.7759,2.7759,0,0,0,.6543.3q.4159.1407,1.0576.294a10.1306,10.1306,0,0,1,1.249.3964,3.1347,3.1347,0,0,1,.9043.5308,2.0861,2.0861,0,0,1,.544.7285,2.3454,2.3454,0,0,1,.1865.9653v.0254a2.6,2.6,0,0,1-.2354,1.1255,2.4183,2.4183,0,0,1-.6523.8438,2.8793,2.8793,0,0,1-1.0059.5239A4.4,4.4,0,0,1,168.3419,22.2Z"/><path class="cls-2" d="M177.9815,13.1226h3.5293a4.4484,4.4484,0,0,1,1.4121.2109,3.0076,3.0076,0,0,1,1.0743.6074,2.6882,2.6882,0,0,1,.6777.9463,3.0812,3.0812,0,0,1,.2363,1.2271V16.14a2.9377,2.9377,0,0,1-.2822,1.3233,2.741,2.741,0,0,1-.7686.9521,3.4306,3.4306,0,0,1-1.1406.5821,4.7825,4.7825,0,0,1-1.3965.1982h-1.7812v2.8765h-1.5606Zm3.3946,4.6538a2.0946,2.0946,0,0,0,1.4179-.4492,1.46,1.46,0,0,0,.52-1.1553v-.0254a1.42,1.42,0,0,0-.5264-1.2,2.2579,2.2579,0,0,0-1.4111-.4043h-1.834v3.2344Z"/><path class="cls-2" d="M195.3956,22.2256a4.7924,4.7924,0,0,1-1.8926-.3643,4.4576,4.4576,0,0,1-2.4287-2.4546,4.6265,4.6265,0,0,1-.3457-1.7836v-.0254a4.6266,4.6266,0,0,1,.3457-1.7837,4.5137,4.5137,0,0,1,.9717-1.47,4.6621,4.6621,0,0,1,3.375-1.3746,4.7924,4.7924,0,0,1,1.8926.3643,4.4564,4.4564,0,0,1,2.4287,2.4551,4.6278,4.6278,0,0,1,.3457,1.7832v.0259a4.6263,4.6263,0,0,1-.3457,1.7832,4.4936,4.4936,0,0,1-.9717,1.47,4.6581,4.6581,0,0,1-3.375,1.3745Zm.0254-1.4448a2.9286,2.9286,0,0,0,1.2158-.2491,2.8789,2.8789,0,0,0,.9482-.6777,3.1437,3.1437,0,0,0,.6182-1.0034,3.374,3.374,0,0,0,.2227-1.2275v-.0254a3.4212,3.4212,0,0,0-.2227-1.2339,3.0938,3.0938,0,0,0-.624-1.01,3.0361,3.0361,0,0,0-.961-.6841,3.0737,3.0737,0,0,0-2.4384-.0063,2.8807,2.8807,0,0,0-.9483.6777,3.1432,3.1432,0,0,0-.6181,1.0039,3.3674,3.3674,0,0,0-.2227,1.2271v.0259a3.4187,3.4187,0,0,0,.2227,1.2334,3.0881,3.0881,0,0,0,.624,1.01,3.0129,3.0129,0,0,0,.9619.6841A2.9053,2.9053,0,0,0,195.421,20.7808Z"/><path class="cls-2" d="M206.5948,13.1226h3.9893a4.3736,4.3736,0,0,1,1.4961.2368,3.0115,3.0115,0,0,1,1.0869.6582,2.6,2.6,0,0,1,.55.8564,2.9234,2.9234,0,0,1,.1914,1.0742v.0254a2.8935,2.8935,0,0,1-.16.9908,2.6068,2.6068,0,0,1-.44.78,2.663,2.663,0,0,1-.6719.5752,3.3236,3.3236,0,0,1-.8623.3643l2.416,3.3882H212.336l-2.206-3.12h-1.9746v3.12h-1.5606Zm3.8682,4.4365a2.08,2.08,0,0,0,1.3467-.4043,1.3359,1.3359,0,0,0,.5-1.0982v-.0253a1.3211,1.3211,0,0,0-.4873-1.1109,2.19,2.19,0,0,0-1.3721-.3784h-2.2949v3.0171Z"/><path class="cls-2" d="M222.6407,14.58h-2.8379V13.1226h7.2617V14.58h-2.8379v7.4922h-1.5859Z"/><path class="cls-2" d="M82.66,28.7671h7.206l5.8711,9.5263,5.8711-9.5263h7.2061V53.3745H102.03V39.2427l-6.2754,9.6328h-.1406l-6.24-9.5625V53.3745H82.66Z"/><path class="cls-2" d="M121.68,28.5913h6.5742L138.73,53.3745h-7.3115l-1.793-4.3936h-9.4922l-1.7578,4.3936h-7.1709Zm5.9766,15.1162-2.7422-6.9961-2.7774,6.9961Z"/><path class="cls-2" d="M149.6274,28.5913h6.5747l10.4756,24.7832h-7.3116l-1.7929-4.3936h-9.4927l-1.7578,4.3936h-7.1709Zm5.977,15.1162-2.7427-6.9961-2.7773,6.9961Z"/><path class="cls-2" d="M169.0683,28.7671H180.704a14.4282,14.4282,0,0,1,4.8164.7031,8.26,8.26,0,0,1,3.1993,1.9687,7.6061,7.6061,0,0,1,2.1787,5.7295v.07a7.7385,7.7385,0,0,1-1.3711,4.7109,8.6649,8.6649,0,0,1-3.69,2.8476l5.87,8.5772h-7.8741l-4.957-7.4522h-2.9883v7.4522h-6.8193Zm11.3193,11.8115a4.12,4.12,0,0,0,2.7071-.791,2.6248,2.6248,0,0,0,.9492-2.127v-.07a2.5474,2.5474,0,0,0-.9844-2.1972,4.5069,4.5069,0,0,0-2.707-.72h-4.4649v5.9053Z"/><path class="cls-2" d="M204.0107,53.7964a19.0865,19.0865,0,0,1-6.2744-1.0254,15.2068,15.2068,0,0,1-5.2559-3.0772l3.7969-4.5449a12.522,12.522,0,0,0,7.98,2.9531,4.07,4.07,0,0,0,2.0918-.4384,1.3822,1.3822,0,0,0,.7207-1.2461v-.07a1.3253,1.3253,0,0,0-.1758-.6846,1.7992,1.7992,0,0,0-.65-.5791,6.744,6.744,0,0,0-1.2656-.543q-.7911-.2637-2.0567-.5449-1.9687-.4556-3.6552-.999a11.2058,11.2058,0,0,1-2.9356-1.4043,5.9911,5.9911,0,0,1-2.6894-5.3164v-.07a7.5775,7.5775,0,0,1,.65-3.1578,7.01,7.01,0,0,1,1.8985-2.4917,8.93,8.93,0,0,1,3.0058-1.6318,12.666,12.666,0,0,1,3.9717-.5791,17.7073,17.7073,0,0,1,5.6426.832,14.2337,14.2337,0,0,1,4.4824,2.458l-3.41,4.83a13.8526,13.8526,0,0,0-3.4629-1.81,10.45,10.45,0,0,0-3.4278-.6152,3.0863,3.0863,0,0,0-1.8457.4561,1.3586,1.3586,0,0,0-.6152,1.123v.07a1.3833,1.3833,0,0,0,.1934.7364,1.755,1.755,0,0,0,.6679.5791,7.3133,7.3133,0,0,0,1.3008.5263q.8262.2637,2.0918.544a30.1441,30.1441,0,0,1,3.8145,1.07,11.4027,11.4027,0,0,1,2.9,1.4912,5.9851,5.9851,0,0,1,1.8281,2.123,6.4776,6.4776,0,0,1,.6328,2.9649v.07a7.586,7.586,0,0,1-.7207,3.3691,7.2478,7.2478,0,0,1-2.0215,2.5088,9.1529,9.1529,0,0,1-3.1289,1.5791A14.2515,14.2515,0,0,1,204.0107,53.7964Z"/><path class="cls-2" d="M226.9306,53.7964a19.0873,19.0873,0,0,1-6.2744-1.0254A15.2077,15.2077,0,0,1,215.4,49.6938l3.7969-4.5449a12.522,12.522,0,0,0,7.98,2.9531,4.07,4.07,0,0,0,2.0918-.4384,1.382,1.382,0,0,0,.7207-1.2461v-.07a1.3253,1.3253,0,0,0-.1758-.6846,1.7992,1.7992,0,0,0-.65-.5791,6.744,6.744,0,0,0-1.2656-.543q-.7911-.2637-2.0567-.5449-1.9687-.4556-3.6552-.999a11.2058,11.2058,0,0,1-2.9356-1.4043,5.9911,5.9911,0,0,1-2.6894-5.3164v-.07a7.5776,7.5776,0,0,1,.65-3.1578,7.0109,7.0109,0,0,1,1.8984-2.4917,8.93,8.93,0,0,1,3.0059-1.6318,12.6654,12.6654,0,0,1,3.9716-.5791,17.7073,17.7073,0,0,1,5.6426.832,14.2326,14.2326,0,0,1,4.4824,2.458l-3.41,4.83a13.8526,13.8526,0,0,0-3.4629-1.81,10.45,10.45,0,0,0-3.4277-.6152,3.0859,3.0859,0,0,0-1.8457.4561,1.3584,1.3584,0,0,0-.6153,1.123v.07a1.3833,1.3833,0,0,0,.1934.7364,1.7546,1.7546,0,0,0,.668.5791,7.315,7.315,0,0,0,1.3007.5263q.8262.2637,2.0918.544a30.1394,30.1394,0,0,1,3.8145,1.07,11.4027,11.4027,0,0,1,2.9,1.4912,5.9841,5.9841,0,0,1,1.8281,2.123,6.4776,6.4776,0,0,1,.6328,2.9649v.07a7.586,7.586,0,0,1-.7207,3.3691,7.2466,7.2466,0,0,1-2.0215,2.5088,9.1529,9.1529,0,0,1-3.1289,1.5791A14.251,14.251,0,0,1,226.9306,53.7964Z"/><path class="cls-2" d="M240.1835,28.7671h19.7559v5.8008h-13.042v3.7255H258.71v5.3789H246.8974v3.9024h13.2178v5.8H240.1835Z"/><path class="cls-2" d="M263.6308,28.7671h6.376l10.1464,13.0068V28.7671h6.7139V53.3745h-5.9883l-10.5341-13.499v13.499h-6.7139Z"/></g></g></svg>